<?xml version="1.0" encoding="UTF-8"?>
<svg xmlns="http://www.w3.org/2000/svg" xmlns:xlink="http://www.w3.org/1999/xlink" viewBox="0 0 512 512">
  <defs>
    <style>
      .cls-1 {
        fill: url(#_名称未設定グラデーション_51-3);
      }

      .cls-2 {
        fill: url(#_名称未設定グラデーション_51-7);
      }

      .cls-3 {
        fill: url(#_名称未設定グラデーション_51-2);
      }

      .cls-4 {
        fill: #3ed6ff;
      }

      .cls-5 {
        fill: #04235b;
      }

      .cls-6 {
        fill: url(#_名称未設定グラデーション_51);
      }

      .cls-7 {
        isolation: isolate;
      }

      .cls-8 {
        fill: url(#_名称未設定グラデーション_51-4);
      }

      .cls-9 {
        fill: url(#_名称未設定グラデーション_24);
        mix-blend-mode: screen;
        opacity: .5;
      }

      .cls-10 {
        fill: url(#_名称未設定グラデーション_51-5);
      }

      .cls-11 {
        fill: url(#_名称未設定グラデーション_51-6);
      }
    </style>
    <linearGradient id="_名称未設定グラデーション_51" data-name="名称未設定グラデーション 51" x1="166.49" y1="146.95" x2="375.91" y2="146.95" gradientUnits="userSpaceOnUse">
      <stop offset="0" stop-color="#fff"/>
      <stop offset="1" stop-color="#b2eaf9" stop-opacity=".4"/>
    </linearGradient>
    <linearGradient id="_名称未設定グラデーション_51-2" data-name="名称未設定グラデーション 51" y1="180.47" x2="301.1" y2="180.47" xlink:href="#_名称未設定グラデーション_51"/>
    <linearGradient id="_名称未設定グラデーション_51-3" data-name="名称未設定グラデーション 51" y1="213.99" y2="213.99" xlink:href="#_名称未設定グラデーション_51"/>
    <linearGradient id="_名称未設定グラデーション_51-4" data-name="名称未設定グラデーション 51" y1="247.5" x2="254.73" y2="247.5" xlink:href="#_名称未設定グラデーション_51"/>
    <linearGradient id="_名称未設定グラデーション_51-5" data-name="名称未設定グラデーション 51" y1="281.02" y2="281.02" xlink:href="#_名称未設定グラデーション_51"/>
    <linearGradient id="_名称未設定グラデーション_51-6" data-name="名称未設定グラデーション 51" y1="314.54" x2="323.56" y2="314.54" xlink:href="#_名称未設定グラデーション_51"/>
    <linearGradient id="_名称未設定グラデーション_51-7" data-name="名称未設定グラデーション 51" y1="348.05" x2="282.26" y2="348.05" xlink:href="#_名称未設定グラデーション_51"/>
    <linearGradient id="_名称未設定グラデーション_24" data-name="名称未設定グラデーション 24" x1="152.77" y1="360.98" x2="474.56" y2="39.19" gradientUnits="userSpaceOnUse">
      <stop offset="0" stop-color="#5ad2f2"/>
      <stop offset="1" stop-color="#b2eaf9" stop-opacity=".5"/>
    </linearGradient>
  </defs>
  <g class="cls-7">
    <g id="icon">
      <g>
        <rect class="cls-5" x="35.03" y="85.22" width="380" height="400" rx="30" ry="30"/>
        <g>
          <g>
            <path class="cls-6" d="M368.41,154.45h-194.42c-4.14,0-7.5-3.36-7.5-7.5s3.36-7.5,7.5-7.5h194.42c4.14,0,7.5,3.36,7.5,7.5s-3.36,7.5-7.5,7.5Z"/>
            <path class="cls-3" d="M293.6,187.97h-119.61c-4.14,0-7.5-3.36-7.5-7.5s3.36-7.5,7.5-7.5h119.61c4.14,0,7.5,3.36,7.5,7.5s-3.36,7.5-7.5,7.5Z"/>
            <path class="cls-1" d="M368.41,221.49h-194.42c-4.14,0-7.5-3.36-7.5-7.5s3.36-7.5,7.5-7.5h194.42c4.14,0,7.5,3.36,7.5,7.5s-3.36,7.5-7.5,7.5Z"/>
            <path class="cls-8" d="M247.23,255h-73.24c-4.14,0-7.5-3.36-7.5-7.5s3.36-7.5,7.5-7.5h73.24c4.14,0,7.5,3.36,7.5,7.5s-3.36,7.5-7.5,7.5Z"/>
            <path class="cls-10" d="M368.41,288.52h-194.42c-4.14,0-7.5-3.36-7.5-7.5s3.36-7.5,7.5-7.5h194.42c4.14,0,7.5,3.36,7.5,7.5s-3.36,7.5-7.5,7.5Z"/>
            <path class="cls-11" d="M316.06,322.04h-142.07c-4.14,0-7.5-3.36-7.5-7.5s3.36-7.5,7.5-7.5h142.07c4.14,0,7.5,3.36,7.5,7.5s-3.36,7.5-7.5,7.5Z"/>
            <path class="cls-2" d="M274.76,355.55h-100.77c-4.14,0-7.5-3.36-7.5-7.5s3.36-7.5,7.5-7.5h100.77c4.14,0,7.5,3.36,7.5,7.5s-3.36,7.5-7.5,7.5Z"/>
          </g>
          <g>
            <rect class="cls-9" x="106.97" y="36.78" width="360" height="380" rx="20" ry="20"/>
            <path class="cls-4" d="M446.97,46.78c5.51,0,10,4.49,10,10v340c0,5.51-4.49,10-10,10H126.97c-5.51,0-10-4.49-10-10V56.78c0-5.51,4.49-10,10-10h320M446.97,26.78H126.97c-16.57,0-30,13.43-30,30v340c0,16.57,13.43,30,30,30h320c16.57,0,30-13.43,30-30V56.78c0-16.57-13.43-30-30-30h0Z"/>
          </g>
        </g>
      </g>
    </g>
  </g>
</svg>