<?xml version="1.0" encoding="UTF-8"?>
<svg id="icon" xmlns="http://www.w3.org/2000/svg" xmlns:xlink="http://www.w3.org/1999/xlink" viewBox="0 0 500 180">
  <defs>
    <style>
      .cls-1 {
        fill: url(#_名称未設定グラデーション_90-9);
      }

      .cls-2 {
        fill: #3ed6ff;
      }

      .cls-3 {
        fill: #04235b;
      }

      .cls-4 {
        fill: url(#_名称未設定グラデーション_90-5);
      }

      .cls-5 {
        fill: url(#_名称未設定グラデーション_90-8);
      }

      .cls-6 {
        fill: url(#_名称未設定グラデーション_90);
      }

      .cls-7 {
        fill: url(#_名称未設定グラデーション_90-4);
      }

      .cls-8 {
        fill: url(#_名称未設定グラデーション_90-10);
      }

      .cls-9 {
        fill: url(#_名称未設定グラデーション_90-7);
      }

      .cls-10 {
        fill: url(#_名称未設定グラデーション_90-6);
      }

      .cls-11 {
        fill: url(#_名称未設定グラデーション_90-3);
      }

      .cls-12 {
        fill: url(#_名称未設定グラデーション_90-2);
      }

      .cls-13 {
        opacity: .5;
      }
    </style>
    <linearGradient id="_名称未設定グラデーション_90" data-name="名称未設定グラデーション 90" x1="304.59" y1="89.86" x2="475" y2="89.86" gradientUnits="userSpaceOnUse">
      <stop offset="0" stop-color="#3ed6ff" stop-opacity="0"/>
      <stop offset=".16" stop-color="#3ed6ff" stop-opacity=".25"/>
      <stop offset=".33" stop-color="#3ed6ff" stop-opacity=".48"/>
      <stop offset=".49" stop-color="#3ed6ff" stop-opacity=".66"/>
      <stop offset=".64" stop-color="#3ed6ff" stop-opacity=".81"/>
      <stop offset=".78" stop-color="#3ed6ff" stop-opacity=".91"/>
      <stop offset=".9" stop-color="#3ed6ff" stop-opacity=".98"/>
      <stop offset="1" stop-color="#3ed6ff"/>
    </linearGradient>
    <linearGradient id="_名称未設定グラデーション_90-2" data-name="名称未設定グラデーション 90" x1="312.22" y1="54.96" x2="324.71" y2="54.96" xlink:href="#_名称未設定グラデーション_90"/>
    <linearGradient id="_名称未設定グラデーション_90-3" data-name="名称未設定グラデーション 90" x1="312.22" y1="78.22" x2="324.71" y2="78.22" xlink:href="#_名称未設定グラデーション_90"/>
    <linearGradient id="_名称未設定グラデーション_90-4" data-name="名称未設定グラデーション 90" x1="312.22" y1="101.49" x2="324.71" y2="101.49" xlink:href="#_名称未設定グラデーション_90"/>
    <linearGradient id="_名称未設定グラデーション_90-5" data-name="名称未設定グラデーション 90" x1="312.22" y1="124.75" x2="324.71" y2="124.75" xlink:href="#_名称未設定グラデーション_90"/>
    <linearGradient id="_名称未設定グラデーション_90-6" data-name="名称未設定グラデーション 90" x1="340.43" y1="54.96" x2="458.42" y2="54.96" xlink:href="#_名称未設定グラデーション_90"/>
    <linearGradient id="_名称未設定グラデーション_90-7" data-name="名称未設定グラデーション 90" x1="388.96" y1="69.71" x2="419.85" y2="69.71" xlink:href="#_名称未設定グラデーション_90"/>
    <linearGradient id="_名称未設定グラデーション_90-8" data-name="名称未設定グラデーション 90" x1="340.43" y1="69.71" x2="358.07" y2="69.71" xlink:href="#_名称未設定グラデーション_90"/>
    <linearGradient id="_名称未設定グラデーション_90-9" data-name="名称未設定グラデーション 90" x1="402.2" y1="112.59" x2="418.15" y2="112.59" xlink:href="#_名称未設定グラデーション_90"/>
    <linearGradient id="_名称未設定グラデーション_90-10" data-name="名称未設定グラデーション 90" x1="385.65" y1="127.33" x2="458.42" y2="127.33" xlink:href="#_名称未設定グラデーション_90"/>
  </defs>
  <g class="cls-13">
    <path class="cls-6" d="M475,144.24h-170.41V35.48h170.41v108.76ZM307.5,141.33h164.6V38.38h-164.6v102.95Z"/>
    <g>
      <path class="cls-12" d="M318.47,61.2c-3.44,0-6.24-2.8-6.24-6.24s2.8-6.24,6.24-6.24,6.24,2.8,6.24,6.24-2.8,6.24-6.24,6.24ZM318.47,51.62c-1.84,0-3.34,1.5-3.34,3.34s1.5,3.34,3.34,3.34,3.34-1.5,3.34-3.34-1.5-3.34-3.34-3.34Z"/>
      <path class="cls-11" d="M318.47,84.47c-3.44,0-6.24-2.8-6.24-6.24s2.8-6.24,6.24-6.24,6.24,2.8,6.24,6.24-2.8,6.24-6.24,6.24ZM318.47,74.88c-1.84,0-3.34,1.5-3.34,3.34s1.5,3.34,3.34,3.34,3.34-1.5,3.34-3.34-1.5-3.34-3.34-3.34Z"/>
      <path class="cls-7" d="M318.47,107.73c-3.44,0-6.24-2.8-6.24-6.24s2.8-6.24,6.24-6.24,6.24,2.8,6.24,6.24-2.8,6.24-6.24,6.24ZM318.47,98.15c-1.84,0-3.34,1.5-3.34,3.34s1.5,3.34,3.34,3.34,3.34-1.5,3.34-3.34-1.5-3.34-3.34-3.34Z"/>
      <path class="cls-4" d="M318.47,130.99c-3.44,0-6.24-2.8-6.24-6.24s2.8-6.24,6.24-6.24,6.24,2.8,6.24,6.24-2.8,6.24-6.24,6.24ZM318.47,121.41c-1.84,0-3.34,1.5-3.34,3.34s1.5,3.34,3.34,3.34,3.34-1.5,3.34-3.34-1.5-3.34-3.34-3.34Z"/>
    </g>
    <rect class="cls-10" x="340.43" y="53.51" width="117.99" height="2.9"/>
    <rect class="cls-9" x="388.96" y="68.26" width="30.89" height="2.9"/>
    <rect class="cls-5" x="340.43" y="68.26" width="17.63" height="2.9"/>
    <rect class="cls-1" x="402.2" y="111.14" width="15.95" height="2.9"/>
    <rect class="cls-8" x="385.65" y="125.88" width="72.77" height="2.9"/>
  </g>
  <g>
    <path class="cls-2" d="M373.33,130.53c-10.11,0-18.39-2.9-24.61-8.62-6.56-5.95-10.33-14.66-10.33-23.89s3.77-18.07,10.33-24.03c6.22-5.71,14.5-8.61,24.6-8.61s18.38,2.9,24.61,8.61c6.56,5.96,10.33,14.71,10.33,24.03s-3.77,17.94-10.33,23.89c-6.22,5.71-14.5,8.61-24.6,8.61ZM373.33,68.29c-9.36,0-16.98,2.64-22.65,7.85-5.97,5.41-9.39,13.39-9.39,21.88s3.42,16.34,9.38,21.74c5.68,5.22,13.3,7.86,22.65,7.86s16.97-2.64,22.65-7.85c5.97-5.41,9.39-13.34,9.39-21.75s-3.42-16.47-9.38-21.88h0c-5.67-5.22-13.29-7.86-22.65-7.86ZM373.33,115.95c-10.05,0-17.92-7.87-17.92-17.92s7.87-18.06,17.92-18.06,17.92,7.93,17.92,18.06-7.87,17.92-17.92,17.92ZM373.33,82.87c-8.42,0-15.02,6.66-15.02,15.16s6.6,15.02,15.02,15.02,15.02-6.6,15.02-15.02-6.6-15.16-15.02-15.16Z"/>
    <path class="cls-2" d="M436.12,128.88h-19.47v-61.46h19.47v5.75c6.17-3.69,13.2-5.63,20.5-5.63h1.5v18h-1.5c-9.6,0-18,6.09-20.5,14.82v28.52ZM419.65,125.88h13.47v-25.92l.05-.2c2.66-9.68,11.57-16.57,21.95-17.17v-12.01c-7.09.28-13.85,2.54-19.64,6.58l-2.36,1.65v-8.38h-13.47v55.46Z"/>
  </g>
  <g>
    <path class="cls-3" d="M74.96,57.65c-5.27-7.02-11.48-7.7-14.72-7.7-9.45,0-12.42,5.94-12.42,10.53,0,2.16.67,4.19,2.83,6.08,2.16,2.03,5.13,3.1,10.8,5.13,7.02,2.43,13.64,4.86,18.23,9.05,4.05,3.64,7.7,9.72,7.7,18.9,0,17.55-12.69,29.57-31.32,29.57-16.61,0-26.33-10.13-31.05-17.01l11.48-10.94c4.32,8.78,12.56,12.02,18.9,12.02,7.97,0,13.91-4.86,13.91-12.42,0-3.24-1.08-5.81-3.51-8.1-3.38-3.1-8.78-4.86-13.91-6.62-4.73-1.62-10.4-3.78-14.99-7.83-2.97-2.57-7.16-7.56-7.16-16.74,0-13.23,8.91-26.46,28.89-26.46,5.67,0,16.34,1.08,25.52,10.53l-9.18,12.02Z"/>
    <path class="cls-3" d="M143,86.55c-3.51-3.24-7.83-5.13-13.5-5.13-10.94,0-16.47,7.97-16.47,16.47,0,9.59,7.16,16.61,17.01,16.61,3.64,0,8.5-1.08,12.96-5.13v16.07c-3.24,1.62-8.37,3.65-15.12,3.65-9.18,0-17.28-3.51-22.55-8.51-4.46-4.19-9.32-11.48-9.32-22.41,0-10.26,4.19-18.5,10.13-23.76,7.16-6.35,15.39-7.56,21.06-7.56,6.07,0,11.07,1.22,15.8,3.51v16.2Z"/>
    <path class="cls-3" d="M209.56,34.35c5.4,0,9.86,4.46,9.86,9.86s-4.46,9.86-9.86,9.86-9.86-4.46-9.86-9.86,4.46-9.86,9.86-9.86ZM217.8,68.92v58.46h-16.47v-58.46h16.47Z"/>
    <polygon class="cls-3" points="334.23 70.41 325.32 70.41 325.32 50.63 308.85 50.63 308.85 70.41 299.94 70.41 299.94 84.45 308.85 84.45 308.85 129.08 325.32 129.08 325.32 84.45 334.23 84.45 334.23 70.41"/>
    <path class="cls-3" d="M286.28,75.27c-4.45-4.45-11.19-7.98-21.06-7.98-7.12,0-12.6,1.84-16.78,4.53v-3.54h-16.34v89.36h16.34v-34.57c4.18,2.69,9.66,4.53,16.78,4.53,9.87,0,16.61-3.53,21.06-7.98,5.18-5.1,8.79-12.95,8.79-22.11s-3.61-17.14-8.79-22.24ZM265.22,113.48c-8.55,0-14.68-7.33-14.68-15.96s6.26-16.09,14.68-16.09,14.68,7.2,14.68,16.09-6.14,15.96-14.68,15.96Z"/>
    <path class="cls-3" d="M170.54,75.92v-7.01h-16.47v58.46h16.47v-27.22c2.55-9.26,11.45-16.12,22-16.12v-15c-8.21,0-15.8,2.56-22,6.88Z"/>
  </g>
</svg>